<svg width="33" height="33" viewBox="0 0 33 33" fill="none" xmlns="http://www.w3.org/2000/svg">
<g clip-path="url(#clip0_74_89)">
<path d="M30.3259 8.30861L22.8268 0.809484C22.5877 0.570484 22.2609 0.443359 21.9429 0.443359H11.9429C11.2525 0.443359 10.6929 1.00298 10.6929 1.69336V23.6934C10.6929 24.3837 11.2525 24.9434 11.9429 24.9434H29.4429C30.1332 24.9434 30.6929 24.3837 30.6929 23.6934V9.19323C30.6929 8.87286 30.5655 8.5488 30.3259 8.30861ZM23.1929 4.71111L26.4251 7.94336H23.1929V4.71111ZM13.1929 22.4434V2.94336H20.6929V9.19336C20.6929 9.88373 21.2525 10.4434 21.9429 10.4434H28.1929V22.4434H13.1929Z" fill="black"/>
<path d="M21.9429 27.4434C21.2525 27.4434 20.6929 28.003 20.6929 28.6934V29.9434H5.69287V9.94336H6.94287C7.63325 9.94336 8.19287 9.38373 8.19287 8.69336C8.19287 8.00298 7.63325 7.44336 6.94287 7.44336H4.44287C3.7525 7.44336 3.19287 8.00298 3.19287 8.69336V31.1934C3.19287 31.8837 3.7525 32.4434 4.44287 32.4434H21.9429C22.6332 32.4434 23.1929 31.8837 23.1929 31.1934V28.6934C23.1929 28.003 22.6332 27.4434 21.9429 27.4434Z" fill="black"/>
</g>
<defs>
<clipPath id="clip0_74_89">
<rect width="32" height="32" fill="white" transform="translate(0.942871 0.443359)"/>
</clipPath>
</defs>
</svg>
