<svg width="74" height="74" viewBox="0 0 74 74" fill="none" xmlns="http://www.w3.org/2000/svg">
<circle cx="37.388" cy="36.9831" r="35.1289" stroke="#653BA3" stroke-width="2"/>
<path d="M72.7579 36.9831C72.7579 56.9365 56.5824 73.112 36.6289 73.112C16.6755 73.112 0.5 56.9365 0.5 36.9831C0.5 17.0296 16.6755 0.854126 36.6289 0.854126C56.5824 0.854126 72.7579 17.0296 72.7579 36.9831Z" fill="#653BA3"/>
<path d="M48.2967 29.1531C48.3812 28.329 47.7817 27.5924 46.9576 27.5079L33.5281 26.1302C32.704 26.0457 31.9674 26.6452 31.8828 27.4693C31.7983 28.2934 32.3978 29.03 33.2219 29.1145L45.1593 30.3391L43.9347 42.2765C43.8501 43.1006 44.4497 43.8372 45.2738 43.9217C46.0979 44.0063 46.8345 43.4067 46.919 42.5826L48.2967 29.1531ZM23.9469 49.5384L47.7514 30.1634L45.8576 27.8367L22.0531 47.2116L23.9469 49.5384Z" fill="black"/>
</svg>
