<svg width="731" height="792" viewBox="0 0 731 792" fill="none" xmlns="http://www.w3.org/2000/svg">
<mask id="mask0_68_582" style="mask-type:alpha" maskUnits="userSpaceOnUse" x="-87" y="-26" width="818" height="818">
<line y1="-0.5" x2="816.724" y2="-0.5" transform="matrix(4.37114e-08 1 1 -4.37114e-08 603.668 -25.4045)" stroke="url(#paint0_radial_68_582)"/>
<line y1="-0.5" x2="816.724" y2="-0.5" transform="matrix(4.37114e-08 1 1 -4.37114e-08 254.952 -25.4045)" stroke="url(#paint1_radial_68_582)"/>
<line y1="-0.5" x2="816.724" y2="-0.5" transform="matrix(1 -8.74228e-08 -8.74228e-08 -1 -86.1188 77.8304)" stroke="url(#paint2_radial_68_582)" stroke-opacity="0.5"/>
<line y1="-0.5" x2="816.724" y2="-0.5" transform="matrix(1 -8.74228e-08 -8.74228e-08 -1 -86.1188 426.547)" stroke="url(#paint3_radial_68_582)"/>
<line y1="-0.5" x2="816.724" y2="-0.5" transform="matrix(4.37114e-08 1 1 -4.37114e-08 429.31 -25.4045)" stroke="url(#paint4_radial_68_582)"/>
<line y1="-0.5" x2="816.724" y2="-0.5" transform="matrix(4.37114e-08 1 1 -4.37114e-08 80.5938 -25.4045)" stroke="url(#paint5_radial_68_582)"/>
<line y1="-0.5" x2="816.724" y2="-0.5" transform="matrix(1 -8.74228e-08 -8.74228e-08 -1 -86.1185 252.189)" stroke="url(#paint6_radial_68_582)"/>
<line y1="-0.5" x2="816.724" y2="-0.5" transform="matrix(1 -8.74228e-08 -8.74228e-08 -1 -86.1185 600.905)" stroke="url(#paint7_radial_68_582)"/>
<line y1="-0.5" x2="816.724" y2="-0.5" transform="matrix(4.37114e-08 1 1 -4.37114e-08 516.49 -25.4045)" stroke="url(#paint8_radial_68_582)"/>
<line y1="-0.5" x2="816.724" y2="-0.5" transform="matrix(4.37114e-08 1 1 -4.37114e-08 167.773 -25.4045)" stroke="url(#paint9_radial_68_582)"/>
<line y1="-0.5" x2="816.724" y2="-0.5" transform="matrix(1 -8.74228e-08 -8.74228e-08 -1 -86.1188 165.009)" stroke="url(#paint10_radial_68_582)"/>
<line y1="-0.5" x2="816.724" y2="-0.5" transform="matrix(1 -8.74228e-08 -8.74228e-08 -1 -86.1188 513.726)" stroke="url(#paint11_radial_68_582)"/>
<line y1="-0.5" x2="816.724" y2="-0.5" transform="matrix(4.37114e-08 1 1 -4.37114e-08 342.131 -25.4045)" stroke="url(#paint12_radial_68_582)"/>
<line y1="-0.5" x2="816.724" y2="-0.5" transform="matrix(1 -8.74228e-08 -8.74228e-08 -1 -86.1185 339.368)" stroke="url(#paint13_radial_68_582)"/>
<line y1="-0.5" x2="816.724" y2="-0.5" transform="matrix(1 -8.74228e-08 -8.74228e-08 -1 -86.1185 688.084)" stroke="url(#paint14_radial_68_582)"/>
</mask>
<g mask="url(#mask0_68_582)">
<rect width="779.972" height="784.136" transform="matrix(-1 0 0 1 712.229 -9.11066)" fill="url(#paint15_linear_68_582)" fill-opacity="0.5"/>
</g>
<defs>
<radialGradient id="paint0_radial_68_582" cx="0" cy="0" r="1" gradientUnits="userSpaceOnUse" gradientTransform="translate(408.362 0.501471) rotate(-0.0725523) scale(395.279 153953)">
<stop stop-color="white"/>
<stop offset="1" stop-color="white" stop-opacity="0"/>
</radialGradient>
<radialGradient id="paint1_radial_68_582" cx="0" cy="0" r="1" gradientUnits="userSpaceOnUse" gradientTransform="translate(408.362 0.501471) rotate(-0.0725523) scale(395.279 153953)">
<stop stop-color="white"/>
<stop offset="1" stop-color="white" stop-opacity="0"/>
</radialGradient>
<radialGradient id="paint2_radial_68_582" cx="0" cy="0" r="1" gradientUnits="userSpaceOnUse" gradientTransform="translate(408.362 0.501471) rotate(-0.0725523) scale(395.279 153953)">
<stop stop-color="white"/>
<stop offset="1" stop-color="white" stop-opacity="0"/>
</radialGradient>
<radialGradient id="paint3_radial_68_582" cx="0" cy="0" r="1" gradientUnits="userSpaceOnUse" gradientTransform="translate(408.362 0.501471) rotate(-0.0725523) scale(395.279 153953)">
<stop stop-color="white"/>
<stop offset="1" stop-color="white" stop-opacity="0"/>
</radialGradient>
<radialGradient id="paint4_radial_68_582" cx="0" cy="0" r="1" gradientUnits="userSpaceOnUse" gradientTransform="translate(408.362 0.501471) rotate(-0.0725523) scale(395.279 153953)">
<stop stop-color="white"/>
<stop offset="1" stop-color="white" stop-opacity="0"/>
</radialGradient>
<radialGradient id="paint5_radial_68_582" cx="0" cy="0" r="1" gradientUnits="userSpaceOnUse" gradientTransform="translate(408.362 0.501471) rotate(-0.0725523) scale(395.279 153953)">
<stop stop-color="white"/>
<stop offset="1" stop-color="white" stop-opacity="0"/>
</radialGradient>
<radialGradient id="paint6_radial_68_582" cx="0" cy="0" r="1" gradientUnits="userSpaceOnUse" gradientTransform="translate(408.362 0.501471) rotate(-0.0725523) scale(395.279 153953)">
<stop stop-color="white"/>
<stop offset="1" stop-color="white" stop-opacity="0"/>
</radialGradient>
<radialGradient id="paint7_radial_68_582" cx="0" cy="0" r="1" gradientUnits="userSpaceOnUse" gradientTransform="translate(408.362 0.501471) rotate(-0.0725523) scale(395.279 153953)">
<stop stop-color="white"/>
<stop offset="1" stop-color="white" stop-opacity="0"/>
</radialGradient>
<radialGradient id="paint8_radial_68_582" cx="0" cy="0" r="1" gradientUnits="userSpaceOnUse" gradientTransform="translate(408.362 0.501471) rotate(-0.0725523) scale(395.279 153953)">
<stop stop-color="white"/>
<stop offset="1" stop-color="white" stop-opacity="0"/>
</radialGradient>
<radialGradient id="paint9_radial_68_582" cx="0" cy="0" r="1" gradientUnits="userSpaceOnUse" gradientTransform="translate(408.362 0.501471) rotate(-0.0725523) scale(395.279 153953)">
<stop stop-color="white"/>
<stop offset="1" stop-color="white" stop-opacity="0"/>
</radialGradient>
<radialGradient id="paint10_radial_68_582" cx="0" cy="0" r="1" gradientUnits="userSpaceOnUse" gradientTransform="translate(408.362 0.501471) rotate(-0.0725523) scale(395.279 153953)">
<stop stop-color="white"/>
<stop offset="1" stop-color="white" stop-opacity="0"/>
</radialGradient>
<radialGradient id="paint11_radial_68_582" cx="0" cy="0" r="1" gradientUnits="userSpaceOnUse" gradientTransform="translate(408.362 0.501471) rotate(-0.0725523) scale(395.279 153953)">
<stop stop-color="white"/>
<stop offset="1" stop-color="white" stop-opacity="0"/>
</radialGradient>
<radialGradient id="paint12_radial_68_582" cx="0" cy="0" r="1" gradientUnits="userSpaceOnUse" gradientTransform="translate(408.362 0.501471) rotate(-0.0725523) scale(395.279 153953)">
<stop stop-color="white"/>
<stop offset="1" stop-color="white" stop-opacity="0"/>
</radialGradient>
<radialGradient id="paint13_radial_68_582" cx="0" cy="0" r="1" gradientUnits="userSpaceOnUse" gradientTransform="translate(408.362 0.501471) rotate(-0.0725523) scale(395.279 153953)">
<stop stop-color="white"/>
<stop offset="1" stop-color="white" stop-opacity="0"/>
</radialGradient>
<radialGradient id="paint14_radial_68_582" cx="0" cy="0" r="1" gradientUnits="userSpaceOnUse" gradientTransform="translate(408.362 0.501471) rotate(-0.0725523) scale(395.279 153953)">
<stop stop-color="white"/>
<stop offset="1" stop-color="white" stop-opacity="0"/>
</radialGradient>
<linearGradient id="paint15_linear_68_582" x1="389.986" y1="-5.97881e-06" x2="591.673" y2="764.469" gradientUnits="userSpaceOnUse">
<stop stop-color="#D9D9D9"/>
<stop offset="1" stop-color="#D9D9D9" stop-opacity="0"/>
</linearGradient>
</defs>
</svg>
