<svg width="38" height="38" viewBox="0 0 38 38" fill="none" xmlns="http://www.w3.org/2000/svg">
<circle cx="18.8877" cy="19.1179" r="18.4099" fill="white"/>
<path d="M14.789 21.2655C14.5658 21.0424 14.4818 21.1545 14.4321 21.2042C13.1468 22.4895 12.0057 25.5908 12.6089 25.2879C14.805 24.1853 15.1709 24.5135 16.4562 23.2283C16.5059 23.1786 16.6201 23.0967 16.3904 22.867L14.789 21.2655Z" fill="#000000"/>
<path d="M21.7181 21.2483C21.6599 21.0629 21.7819 20.9736 21.8332 20.9182C24.6701 17.8554 26.473 13.7749 25.137 12.4387C23.8079 11.1098 19.8532 12.9654 16.7913 15.7818C16.7308 15.8376 16.6114 15.9432 16.3978 15.8986L15.4438 15.6715C15.1789 15.6085 14.8047 15.7144 14.6122 15.9069L11.1118 19.4073C10.9192 19.5998 10.9818 19.7919 11.2508 19.8342L13.7825 20.232C14.0515 20.2744 14.4291 20.1514 14.6216 19.9588C14.6216 19.9588 14.7522 19.8279 14.8834 19.9591C15.6075 20.6831 16.9531 22.0286 17.6429 22.7185C17.7801 22.8556 17.6487 22.986 17.6487 22.986C17.4562 23.1786 17.3333 23.5561 17.3756 23.8251L17.7734 26.3568C17.8157 26.6259 18.0078 26.6884 18.2003 26.4959L21.7008 22.9954C21.8932 22.8029 21.9992 22.4287 21.9361 22.1639L21.7181 21.2483ZM20.9344 16.726C20.3415 16.1331 20.3415 15.172 20.9344 14.5792C21.5272 13.9863 22.4884 13.9863 23.0813 14.5792C23.6742 15.1719 23.6742 16.1331 23.0813 16.726C22.4884 17.3189 21.5272 17.3189 20.9344 16.726Z" fill="#000000"/>
</svg>
